<svg xmlns="http://www.w3.org/2000/svg" class="overlay" id="mapSvg" viewBox="0 0 1170 500" preserveAspectRatio="xMidYMid meet" width="1170" height="500"><g transform="translate(481.296 19.0476) scale(0.21164)"><path class="link" d="M 750 2062.5 C 875 2062.5 875 2062.5 1000 2062.5" /><path class="link" d="M 500 2062.5 C 625 2062.5 625 2062.5 750 2062.5" /><path class="link" d="M 250 1993.75 C 375 1993.75 375 1925 500 1925" /><path class="link" d="M 250 1993.75 C 375 1993.75 375 2062.5 500 2062.5" /><path class="link" d="M 750 1512.5 C 875 1512.5 875 1237.5 1000 1237.5" /><path class="link" d="M 750 1512.5 C 875 1512.5 875 1375 1000 1375" /><path class="link" d="M 750 1512.5 C 875 1512.5 875 1512.5 1000 1512.5" /><path class="link" d="M 750 1512.5 C 875 1512.5 875 1650 1000 1650" /><path class="link" d="M 750 1512.5 C 875 1512.5 875 1787.5 1000 1787.5" /><path class="link" d="M 500 1512.5 C 625 1512.5 625 1512.5 750 1512.5" /><path class="link" d="M 250 1512.5 C 375 1512.5 375 1512.5 500 1512.5" /><path class="link" d="M 750 825 C 875 825 875 687.5 1000 687.5" /><path class="link" d="M 750 825 C 875 825 875 825 1000 825" /><path class="link" d="M 750 825 C 875 825 875 962.5 1000 962.5" /><path class="link" d="M 500 825 C 625 825 625 825 750 825" /><path class="link" d="M 750 412.5 C 875 412.5 875 412.5 1000 412.5" /><path class="link" d="M 500 412.5 C 625 412.5 625 412.5 750 412.5" /><path class="link" d="M 250 618.75 C 375 618.75 375 412.5 500 412.5" /><path class="link" d="M 250 618.75 C 375 618.75 375 825 500 825" /><path class="link" d="M 750 137.5 C 875 137.5 875 137.5 1000 137.5" /><path class="link" d="M 500 137.5 C 625 137.5 625 137.5 750 137.5" /><path class="link" d="M 250 137.5 C 375 137.5 375 137.5 500 137.5" /><path class="link" d="M 0 1065.63 C 125 1065.63 125 137.5 250 137.5" /><path class="link" d="M 0 1065.63 C 125 1065.63 125 618.75 250 618.75" /><path class="link" d="M 0 1065.63 C 125 1065.63 125 1512.5 250 1512.5" /><path class="link" d="M 0 1065.63 C 125 1065.63 125 1993.75 250 1993.75" /><g class="node" transform="translate(1000 2062.5)"><path style="fill: #ffeff1; stroke: #efc6ca; stroke-opacity: 1;" d="M -150 -50 L 150 -50 L 150 50 L -150 50 Z" /><image /><text style="font-family: sans-serif; font-size: 18px; opacity: 1; fill: #333333;" text-anchor="end" x="334.79" y="-38.5714" dy="0.35em" name="grau de maturidade da empresa&lt;br&gt;nos diferentes domínios&lt;br&gt;estabelecidos pelo COBIT&lt;sup&gt;®&lt;/sup&gt;" tspan_name="&lt;tspan x=&quot;128.05999755859375&quot; dy=&quot;1.2em&quot;&gt;grau de maturidade da empresa&lt;/tspan&gt;&lt;tspan x=&quot;95.54499816894531&quot; dy=&quot;1.2em&quot;&gt;nos diferentes domínios&lt;/tspan&gt;&lt;tspan x=&quot;111.18499755859375&quot; dy=&quot;1.2em&quot;&gt;&lt;tspan&gt;estabelecidos pelo COBIT&lt;/tspan&gt;&lt;tspan  data-fontmod=&quot;0.5&quot; style=&quot;vertical-align: super; font-size: 0.5em;&quot; dy=&quot;-0.5em&quot; &gt;®&lt;/tspan&gt;&lt;/tspan&gt;"><tspan><tspan x="128.06" dy="1.2em">grau de maturidade da empresa</tspan><tspan x="95.545" dy="1.2em">nos diferentes domínios</tspan><tspan x="111.185" dy="1.2em"><tspan>estabelecidos pelo COBIT</tspan><tspan style="vertical-align: super; font-size: 0.5em;" dy="-0.5em" data-fontmod="0.5">®</tspan></tspan></tspan></text></g><g class="node" transform="translate(750 2062.5)"><path style="fill: #f2f2f2; stroke-opacity: 1;" d="M -67.5 -22.5 L 67.5 -22.5 L 67.5 22.5 L -67.5 22.5 Z" /><image /><text style="font-family: sans-serif; font-size: 18px; opacity: 1; fill: #333333;" text-anchor="end" x="137.545" y="-25.7142" dy="0.35em" name="que permitem&lt;br&gt;medir e acompanhar" tspan_name="&lt;tspan x=&quot;55.01499938964844&quot; dy=&quot;1.2em&quot;&gt;que permitem&lt;/tspan&gt;&lt;tspan x=&quot;82.52999877929687&quot; dy=&quot;1.2em&quot;&gt;medir e acompanhar&lt;/tspan&gt;"><tspan><tspan x="55.015" dy="1.2em">que permitem</tspan><tspan x="82.53" dy="1.2em">medir e acompanhar</tspan></tspan></text></g><g class="node" transform="translate(500 2062.5)"><path style="fill: #ffeff1; stroke: #efc6ca; stroke-opacity: 1;" d="M -129 -43 L 129 -43 L 129 43 L -129 43 Z" /><image /><text style="font-family: sans-serif; font-size: 18px; opacity: 1; fill: #333333;" text-anchor="end" x="83.54" y="0" dy="0.35em" name="níveis de maturidade" tspan_name="&lt;tspan x=&quot;83.54000091552734&quot; &gt;níveis de maturidade&lt;/tspan&gt;"><tspan><tspan x="83.54">níveis de maturidade</tspan></tspan></text></g><g class="node" transform="translate(500 1925)"><path style="fill: #ffeff1; stroke: #efc6ca; stroke-opacity: 1;" d="M -129 -43 L 129 -43 L 129 43 L -129 43 Z" /><image /><text style="font-family: sans-serif; font-size: 18px; opacity: 1; fill: #333333;" text-anchor="end" x="48.5" y="0" dy="0.35em" name="Matriz RACI" tspan_name="&lt;tspan x=&quot;48.5&quot; &gt;Matriz RACI&lt;/tspan&gt;"><tspan><tspan x="48.5">Matriz RACI</tspan></tspan></text></g><g class="node" transform="translate(250 1993.75)"><path style="fill: #f2f2f2; stroke-opacity: 1;" d="M -67.5 -22.5 L 67.5 -22.5 L 67.5 22.5 L -67.5 22.5 Z" /><image /><text style="font-family: sans-serif; font-size: 18px; opacity: 1; fill: #333333;" text-anchor="end" x="139.58" y="-25.7142" dy="0.35em" name="define o uso de&lt;br&gt;metodologias como" tspan_name="&lt;tspan x=&quot;61.54499816894531&quot; dy=&quot;1.2em&quot;&gt;define o uso de&lt;/tspan&gt;&lt;tspan x=&quot;78.03499603271484&quot; dy=&quot;1.2em&quot;&gt;metodologias como&lt;/tspan&gt;"><tspan><tspan x="61.545" dy="1.2em">define o uso de</tspan><tspan x="78.035" dy="1.2em">metodologias como</tspan></tspan></text></g><g class="node" transform="translate(1000 1787.5)"><path style="fill: #ffeff1; stroke: #efc6ca; stroke-opacity: 1;" d="M -129 -43 L 129 -43 L 129 43 L -129 43 Z" /><image /><text style="font-family: sans-serif; font-size: 18px; opacity: 1; fill: #333333;" text-anchor="end" x="114.065" y="-25.7142" dy="0.35em" name="mensuração de&lt;br&gt;desempenho" tspan_name="&lt;tspan x=&quot;62.029998779296875&quot; dy=&quot;1.2em&quot;&gt;mensuração de&lt;/tspan&gt;&lt;tspan x=&quot;52.03499984741211&quot; dy=&quot;1.2em&quot;&gt;desempenho&lt;/tspan&gt;"><tspan><tspan x="62.03" dy="1.2em">mensuração de</tspan><tspan x="52.035" dy="1.2em">desempenho</tspan></tspan></text></g><g class="node" transform="translate(1000 1650)"><path style="fill: #ffeff1; stroke: #efc6ca; stroke-opacity: 1;" d="M -129 -43 L 129 -43 L 129 43 L -129 43 Z" /><image /><text style="font-family: sans-serif; font-size: 18px; opacity: 1; fill: #333333;" text-anchor="end" x="76.535" y="0" dy="0.35em" name="gestão de recursos" tspan_name="&lt;tspan x=&quot;76.53499603271484&quot; &gt;gestão de recursos&lt;/tspan&gt;"><tspan><tspan x="76.535">gestão de recursos</tspan></tspan></text></g><g class="node" transform="translate(1000 1512.5)"><path style="fill: #ffeff1; stroke: #efc6ca; stroke-opacity: 1;" d="M -129 -43 L 129 -43 L 129 43 L -129 43 Z" /><image /><text style="font-family: sans-serif; font-size: 18px; opacity: 1; fill: #333333;" text-anchor="end" x="61.03" y="0" dy="0.35em" name="gestão de risco" tspan_name="&lt;tspan x=&quot;61.029998779296875&quot; &gt;gestão de risco&lt;/tspan&gt;"><tspan><tspan x="61.03">gestão de risco</tspan></tspan></text></g><g class="node" transform="translate(1000 1375)"><path style="fill: #ffeff1; stroke: #efc6ca; stroke-opacity: 1;" d="M -129 -43 L 129 -43 L 129 43 L -129 43 Z" /><image /><text style="font-family: sans-serif; font-size: 18px; opacity: 1; fill: #333333;" text-anchor="end" x="65.035" y="0" dy="0.35em" name="entrega de valor" tspan_name="&lt;tspan x=&quot;65.03499603271484&quot; &gt;entrega de valor&lt;/tspan&gt;"><tspan><tspan x="65.035">entrega de valor</tspan></tspan></text></g><g class="node" transform="translate(1000 1237.5)"><path style="fill: #ffeff1; stroke: #efc6ca; stroke-opacity: 1;" d="M -129 -43 L 129 -43 L 129 43 L -129 43 Z" /><image /><text style="font-family: sans-serif; font-size: 18px; opacity: 1; fill: #333333;" text-anchor="end" x="95.55" y="0" dy="0.35em" name="alinhamento estratégico" tspan_name="&lt;tspan x=&quot;95.54999542236328&quot; &gt;alinhamento estratégico&lt;/tspan&gt;"><tspan><tspan x="95.55">alinhamento estratégico</tspan></tspan></text></g><g class="node" transform="translate(750 1512.5)"><path style="fill: #f2f2f2; stroke-opacity: 1;" d="M -67.5 -22.5 L 67.5 -22.5 L 67.5 22.5 L -67.5 22.5 Z" /><image /><text style="font-family: sans-serif; font-size: 18px; opacity: 1; fill: #333333;" text-anchor="end" x="58.51" y="0" dy="0.35em" name="dividem-se em" tspan_name="&lt;tspan x=&quot;58.5099983215332&quot; &gt;dividem-se em&lt;/tspan&gt;"><tspan><tspan x="58.51">dividem-se em</tspan></tspan></text></g><g class="node" transform="translate(500 1512.5)"><path style="fill: #ffeff1; stroke: #efc6ca; stroke-opacity: 1;" d="M -129 -43 L 129 -43 L 129 43 L -129 43 Z" /><image /><text style="font-family: sans-serif; font-size: 18px; opacity: 1; fill: #333333;" text-anchor="end" x="107.055" y="-25.7142" dy="0.35em" name="áreas de&lt;br&gt;Governança de TI" tspan_name="&lt;tspan x=&quot;35.02000045776367&quot; dy=&quot;1.2em&quot;&gt;áreas de&lt;/tspan&gt;&lt;tspan x=&quot;72.03499603271484&quot; dy=&quot;1.2em&quot;&gt;Governança de TI&lt;/tspan&gt;"><tspan><tspan x="35.02" dy="1.2em">áreas de</tspan><tspan x="72.035" dy="1.2em">Governança de TI</tspan></tspan></text></g><g class="node" transform="translate(250 1512.5)"><path style="fill: #f2f2f2; stroke-opacity: 1;" d="M -67.5 -22.5 L 67.5 -22.5 L 67.5 22.5 L -67.5 22.5 Z" /><image /><text style="font-family: sans-serif; font-size: 18px; opacity: 1; fill: #333333;" text-anchor="end" x="54.02" y="0" dy="0.35em" name="baseia-se em" tspan_name="&lt;tspan x=&quot;54.02000045776367&quot; &gt;baseia-se em&lt;/tspan&gt;"><tspan><tspan x="54.02">baseia-se em</tspan></tspan></text></g><g class="node" transform="translate(1000 962.5)"><path style="fill: #ffeff1; stroke: #efc6ca; stroke-opacity: 1;" d="M -129 -43 L 129 -43 L 129 43 L -129 43 Z" /><image /><text style="font-family: sans-serif; font-size: 18px; opacity: 1; fill: #333333;" text-anchor="end" x="40.525" y="0" dy="0.35em" name="atividades" tspan_name="&lt;tspan x=&quot;40.52499771118164&quot; &gt;atividades&lt;/tspan&gt;"><tspan><tspan x="40.525">atividades</tspan></tspan></text></g><g class="node" transform="translate(1000 825)"><path style="fill: #ffeff1; stroke: #efc6ca; stroke-opacity: 1;" d="M -129 -43 L 129 -43 L 129 43 L -129 43 Z" /><image /><text style="font-family: sans-serif; font-size: 18px; opacity: 1; fill: #333333;" text-anchor="end" x="74.035" y="0" dy="0.35em" name="áreas de processo" tspan_name="&lt;tspan x=&quot;74.03499603271484&quot; &gt;áreas de processo&lt;/tspan&gt;"><tspan><tspan x="74.035">áreas de processo</tspan></tspan></text></g><g class="node" transform="translate(1000 687.5)"><path style="fill: #ffeff1; stroke: #efc6ca; stroke-opacity: 1;" d="M -129 -43 L 129 -43 L 129 43 L -129 43 Z" /><image /><text style="font-family: sans-serif; font-size: 18px; opacity: 1; fill: #333333;" text-anchor="end" x="36.515" y="0" dy="0.35em" name="domínios" tspan_name="&lt;tspan x=&quot;36.51499938964844&quot; &gt;domínios&lt;/tspan&gt;"><tspan><tspan x="36.515">domínios</tspan></tspan></text></g><g class="node" transform="translate(750 825)"><path style="fill: #f2f2f2; stroke-opacity: 1;" d="M -67.5 -22.5 L 67.5 -22.5 L 67.5 22.5 L -67.5 22.5 Z" /><image /><text style="font-family: sans-serif; font-size: 18px; opacity: 1; fill: #333333;" text-anchor="end" x="89.045" y="-25.7142" dy="0.35em" name="subdivide as&lt;br&gt;ações em" tspan_name="&lt;tspan x=&quot;50.029998779296875&quot; dy=&quot;1.2em&quot;&gt;subdivide as&lt;/tspan&gt;&lt;tspan x=&quot;39.01499938964844&quot; dy=&quot;1.2em&quot;&gt;ações em&lt;/tspan&gt;"><tspan><tspan x="50.03" dy="1.2em">subdivide as</tspan><tspan x="39.015" dy="1.2em">ações em</tspan></tspan></text></g><g class="node" transform="translate(500 825)"><path style="fill: #ffeff1; stroke: #efc6ca; stroke-opacity: 1;" d="M -129 -43 L 129 -43 L 129 43 L -129 43 Z" /><image /><text style="font-family: sans-serif; font-size: 18px; opacity: 1; fill: #333333;" text-anchor="end" x="127.555" y="-25.7142" dy="0.35em" name="gestão eficaz dos&lt;br&gt;recursos de TI" tspan_name="&lt;tspan x=&quot;70.04000091552734&quot; dy=&quot;1.2em&quot;&gt;gestão eficaz dos&lt;/tspan&gt;&lt;tspan x=&quot;57.51499938964844&quot; dy=&quot;1.2em&quot;&gt;recursos de TI&lt;/tspan&gt;"><tspan><tspan x="70.04" dy="1.2em">gestão eficaz dos</tspan><tspan x="57.515" dy="1.2em">recursos de TI</tspan></tspan></text></g><g class="node" transform="translate(1000 412.5)"><path style="fill: #ffeff1; stroke: #efc6ca; stroke-opacity: 1;" d="M -150 -50 L 150 -50 L 150 50 L -150 50 Z" /><image /><text style="font-family: sans-serif; font-size: 18px; opacity: 1; fill: #333333;" text-anchor="end" x="380.18" y="-38.5714" dy="0.35em" name="voltar as ações da TI em prol do&lt;br&gt;aumento da eficiência da empresa&lt;br&gt;em produzir o que ela vende" tspan_name="&lt;tspan x=&quot;128.5500030517578&quot; dy=&quot;1.2em&quot;&gt;voltar as ações da TI em prol do&lt;/tspan&gt;&lt;tspan x=&quot;137.5699920654297&quot; dy=&quot;1.2em&quot;&gt;aumento da eficiência da empresa&lt;/tspan&gt;&lt;tspan x=&quot;114.05999755859375&quot; dy=&quot;1.2em&quot;&gt;em produzir o que ela vende&lt;/tspan&gt;"><tspan><tspan x="128.55" dy="1.2em">voltar as ações da TI em prol do</tspan><tspan x="137.57" dy="1.2em">aumento da eficiência da empresa</tspan><tspan x="114.06" dy="1.2em">em produzir o que ela vende</tspan></tspan></text></g><g class="node" transform="translate(750 412.5)"><path style="fill: #f2f2f2; stroke-opacity: 1;" d="M -67.5 -22.5 L 67.5 -22.5 L 67.5 22.5 L -67.5 22.5 Z" /><image /><text style="font-family: sans-serif; font-size: 18px; opacity: 1; fill: #333333;" text-anchor="end" x="28.005" y="0" dy="0.35em" name="implica" tspan_name="&lt;tspan x=&quot;28.0049991607666&quot; &gt;implica&lt;/tspan&gt;"><tspan><tspan x="28.005">implica</tspan></tspan></text></g><g class="node" transform="translate(500 412.5)"><path style="fill: #ffeff1; stroke: #efc6ca; stroke-opacity: 1;" d="M -129 -43 L 129 -43 L 129 43 L -129 43 Z" /><image /><text style="font-family: sans-serif; font-size: 18px; opacity: 1; fill: #333333;" text-anchor="end" x="182.085" y="-25.7142" dy="0.35em" name="o uso dos recursos de&lt;br&gt;TI com foco no negócio" tspan_name="&lt;tspan x=&quot;88.54000091552734&quot; dy=&quot;1.2em&quot;&gt;o uso dos recursos de&lt;/tspan&gt;&lt;tspan x=&quot;93.54499816894531&quot; dy=&quot;1.2em&quot;&gt;TI com foco no negócio&lt;/tspan&gt;"><tspan><tspan x="88.54" dy="1.2em">o uso dos recursos de</tspan><tspan x="93.545" dy="1.2em">TI com foco no negócio</tspan></tspan></text></g><g class="node" transform="translate(250 618.75)"><path style="fill: #f2f2f2; stroke-opacity: 1;" d="M -30 -10 L 30 -10 L 30 10 L -30 10 Z" /><image /><text style="font-family: sans-serif; font-size: 18px; opacity: 1; fill: #333333;" text-anchor="end" x="28.02" y="0" dy="0.35em" name="propõe" tspan_name="&lt;tspan x=&quot;28.01999855041504&quot; &gt;propõe&lt;/tspan&gt;"><tspan><tspan x="28.02">propõe</tspan></tspan></text></g><g class="node" transform="translate(1000 137.5)"><path style="fill: #ffeff1; stroke: #efc6ca; stroke-opacity: 1;" d="M -129 -43 L 129 -43 L 129 43 L -129 43 Z" /><image /><text style="font-family: sans-serif; font-size: 18px; opacity: 1; fill: #333333;" text-anchor="end" x="55.02" y="0" dy="0.35em" name="cinco versões" tspan_name="&lt;tspan x=&quot;55.02000045776367&quot; &gt;cinco versões&lt;/tspan&gt;"><tspan><tspan x="55.02">cinco versões</tspan></tspan></text></g><g class="node" transform="translate(750 137.5)"><path style="fill: #f2f2f2; stroke-opacity: 1;" d="M -67.5 -22.5 L 67.5 -22.5 L 67.5 22.5 L -67.5 22.5 Z" /><image /><text style="font-family: sans-serif; font-size: 18px; opacity: 1; fill: #333333;" text-anchor="end" x="43.52" y="0" dy="0.35em" name="evoluiu em" tspan_name="&lt;tspan x=&quot;43.52000045776367&quot; &gt;evoluiu em&lt;/tspan&gt;"><tspan><tspan x="43.52">evoluiu em</tspan></tspan></text></g><g class="node" transform="translate(500 137.5)"><path style="fill: #ffeff1; stroke: #efc6ca; stroke-opacity: 1;" d="M -129 -43 L 129 -43 L 129 43 L -129 43 Z" /><image /><text style="font-family: sans-serif; font-size: 18px; opacity: 1; fill: #333333;" text-anchor="end" x="183.09" y="-25.7142" dy="0.35em" name="guia de boas práticas&lt;br&gt;de gerenciamento em TI" tspan_name="&lt;tspan x=&quot;85.54999542236328&quot; dy=&quot;1.2em&quot;&gt;guia de boas práticas&lt;/tspan&gt;&lt;tspan x=&quot;97.54000091552734&quot; dy=&quot;1.2em&quot;&gt;de gerenciamento em TI&lt;/tspan&gt;"><tspan><tspan x="85.55" dy="1.2em">guia de boas práticas</tspan><tspan x="97.54" dy="1.2em">de gerenciamento em TI</tspan></tspan></text></g><g class="node" transform="translate(250 137.5)"><path style="fill: #f2f2f2; stroke-opacity: 1;" d="M -67.5 -22.5 L 67.5 -22.5 L 67.5 22.5 L -67.5 22.5 Z" /><image /><text style="font-family: sans-serif; font-size: 18px; opacity: 1; fill: #333333;" text-anchor="end" x="20.005" y="0" dy="0.35em" name="é um" tspan_name="&lt;tspan x=&quot;20.0049991607666&quot; &gt;é um&lt;/tspan&gt;"><tspan><tspan x="20.005">é um</tspan></tspan></text></g><g class="node" transform="translate(0 1065.63)"><path style="fill: #ffeff1; stroke: #efc6ca; stroke-opacity: 1;" d="M -142.5 -47.5 L 142.5 -47.5 L 142.5 47.5 L -142.5 47.5 Z" /><image /><text style="font-family: sans-serif; font-size: 28px; opacity: 1; fill: #333333;" text-anchor="end" x="53.095" y="0" dy="0.35em" name="COBIT&lt;sup&gt;®&lt;/sup&gt;" tspan_name="&lt;tspan x=&quot;53.09499740600586&quot; &gt;&lt;tspan&gt;COBIT&lt;/tspan&gt;&lt;tspan  data-fontmod=&quot;0.5&quot; style=&quot;vertical-align: super; font-size: 0.5em;&quot; dy=&quot;-0.5em&quot; &gt;®&lt;/tspan&gt;&lt;/tspan&gt;"><tspan><tspan x="53.095"><tspan>COBIT</tspan><tspan style="vertical-align: super; font-size: 0.5em;" dy="-0.5em" data-fontmod="0.5">®</tspan></tspan></tspan></text></g></g></svg>